# xmcd
#
# Track frame offsets: 
#        150
#        17714
#        44150
#        63303
#        82819
#        101931
#        119200
#        136555
#        152483
#        165613
#        181519
#        196144
#
# Disc length: 2877 seconds
#
# Revision: 1
# Processed by: cddbd v1.5.2PL0 Copyright (c) Steve Scherf et al.
# Submitted via: ExactAudioCopyFreeDBPlugin 1.0
#
DISCID=960b3b0c
DTITLE=P.L.A.N. - BLUES у канцы тунэлю
DYEAR=2002
DGENRE=Blues
TTITLE0=Вецер
TTITLE1=Шукальнікі сэнсу
TTITLE2=Аўтобус
TTITLE3=Цені гісторыі
TTITLE4=Рабы і воля
TTITLE5=Даміно
TTITLE6=Лісткі тэлефонаў
TTITLE7=Лялька
TTITLE8=Пакет
TTITLE9=Я не люблю
TTITLE10=На лаўцы
TTITLE11=Шукальнікі сэнсу (Radio mix)
EXTD=
EXTT0=
EXTT1=
EXTT2=
EXTT3=
EXTT4=
EXTT5=
EXTT6=
EXTT7=
EXTT8=
EXTT9=
EXTT10=
EXTT11=
PLAYORDER=
